<svg width="1024" height="1024" viewBox="0 0 1024 1024" fill="none" xmlns="http://www.w3.org/2000/svg">
<path d="M332.198 143.931C219.356 209.764 272.937 268.271 313.833 289.296C345.962 248.93 388.785 214.334 433.698 202.196C471.586 191.178 509.68 199.708 506.732 175.972C500.963 129.516 473.251 61.6396 332.198 143.931Z" fill="#2D2D2D"/>
<path d="M957.583 599.274C604.497 -158.654 223.205 260.789 69.8867 577.647C66.0446 585.588 65.7226 594.617 69.4274 602.622C113.299 697.421 257.089 862.677 530.5 853.5C802.705 844.363 925.896 702.548 958.701 622.646C961.751 615.216 960.974 606.553 957.583 599.274Z" fill="#8C8A88"/>
<path d="M821 577.5C821 673.598 785 818.5 530 818.5C234 793.5 200 682.598 200 586.5C239.5 414 422.304 331.5 530 331.5C637.696 331.5 809 475.5 821 577.5Z" fill="#777777"/>
<path d="M712 412C712 434.091 696.5 456.5 671.281 456.5C648.793 456.5 627 438.864 627 412C627 385.136 648.793 371 671.281 371C693.77 371 712 386.5 712 412Z" fill="black"/>
<circle cx="654.281" cy="398.636" r="15.5" fill="#D9D9D9"/>
<path d="M380.219 412.864C380.219 434.955 364.719 457.364 339.5 457.364C317.012 457.364 295.219 439.728 295.219 412.864C295.219 386 317.012 371.864 339.5 371.864C361.988 371.864 380.219 387.364 380.219 412.864Z" fill="black"/>
<circle cx="322.5" cy="399.5" r="15.5" fill="#D9D9D9"/>
<path d="M589 720.5C589 753.5 575 775.5 521 770C482.34 770 451 763 451 724.5C451 691.5 478.34 675 517 675C555.66 675 587 681 589 720.5Z" fill="#575656"/>
<path d="M552.636 744.425C550.807 753.63 539.136 762.81 517.636 762.81C502.136 763.352 486.136 755.761 486.136 747.514C484.136 729.31 504.636 721.255 520.136 723.314C533.115 723.314 556.136 726.81 552.636 744.425Z" fill="#777777"/>
<rect x="546" y="756" width="30" height="88" rx="15" fill="#575656"/>
<path d="M550.5 762.5L576 756V795.182H546L550.5 762.5Z" fill="#575656"/>
<circle cx="561" cy="869" r="15" fill="#575656"/>
<path d="M379.144 162.558L349.114 153.094L360.823 167.326L358.76 174.583L388.807 182.533L377.993 167.775L379.149 162.567L379.144 162.558Z" fill="white"/>
<path d="M403.075 186.186L388.986 182.45L388.87 182.545L388.818 182.454L358.922 174.616L361.006 167.375L349.103 153.137L345.391 176.907C344.467 180.433 346.157 184.347 349.32 186.107L365.322 194.954C367.773 196.311 370.507 196.513 373.192 194.833C378.876 191.279 381.428 189.805 381.428 189.805L403.063 186.18L403.073 186.183L403.075 186.186Z" fill="#18B6F6"/>
<path d="M393.093 158.688C392.848 155.284 391.965 152.692 389.347 151.094L385.617 148.809L383.692 147.643L382.939 147.184L382.933 147.244L373.08 141.55C371.859 140.84 370.471 140.469 369.058 140.474C367.646 140.479 366.26 140.861 365.044 141.58L360.798 144.194L347.935 151.665C346.744 152.364 345.755 153.36 345.065 154.556C344.374 155.752 344.006 157.107 343.996 158.488L345.144 178.55L349.09 153.039L379.131 162.635L377.762 167.868L388.854 182.538L388.864 182.492L388.889 182.534L388.858 182.552L388.924 182.567L391.317 183.177L402.905 186.138C403.391 186.255 403.686 185.605 403.264 185.353L393.48 178.981" fill="#AC7EF4"/>
</svg>
